<!-- icon666.com - MILLIONS vector ICONS FREE --><svg viewBox="0 0 414 414" height="50px" width="50px" xmlns="http://www.w3.org/2000/svg"><path d="m414 207c0 114.324219-92.675781 207-207 207s-207-92.675781-207-207 92.675781-207 207-207 207 92.675781 207 207zm0 0" fill="#f0c48a"></path><path d="m244.09375 246.835938h-74.273438l-7.519531-68.820313c-1.332031-13.949219 9.640625-26.015625 23.652344-26.015625h42.003906c14.015625 0 24.984375 12.066406 23.652344 26.015625zm0 0" fill="#fd919e"></path><path d="m164.589844 198.964844h-17.984375c-7.117188 0-12.886719 5.769531-12.886719 12.886718 0 7.117188 5.769531 12.886719 12.886719 12.886719h2.550781l4.496094 22.097657h16.167968zm0 0" fill="#fd919e"></path><path d="m249.410156 198.964844h17.980469c7.117187 0 12.886719 5.769531 12.886719 12.886718 0 7.117188-5.769532 12.886719-12.886719 12.886719h-2.546875l-4.496094 22.097657h-16.167968zm0 0" fill="#fd919e"></path><path d="m153.652344 246.839844h106.746094v30.570312h-106.746094zm0 0" fill="#fd919e"></path><g fill="#4c4372"><path d="m244.09375 252.835938h-74.273438c-3.0625 0-5.632812-2.304688-5.964843-5.347657l-7.519531-68.820312c-.800782-8.410157 1.96875-16.738281 7.597656-22.925781 5.628906-6.191407 13.65625-9.742188 22.023437-9.742188h42c8.367188 0 16.394531 3.550781 22.023438 9.738281 5.625 6.191407 8.398437 14.519531 7.605469 22.847657l-7.527344 68.902343c-.332032 3.042969-2.90625 5.347657-5.964844 5.347657zm-68.894531-12h63.515625l6.933594-63.472657c.472656-4.960937-1.140626-9.800781-4.550782-13.550781-3.40625-3.75-8.074218-5.8125-13.140625-5.8125h-42.003906c-5.0625 0-9.730469 2.0625-13.140625 5.8125-3.40625 3.75-5.019531 8.589844-4.539062 13.636719zm0 0"></path><path d="m169.820312 252.835938h-16.167968c-2.851563 0-5.3125-2.007813-5.878906-4.804688l-3.550782-17.441406c-9.292968-1.175782-16.503906-9.128906-16.503906-18.738282 0-10.414062 8.472656-18.886718 18.886719-18.886718h17.984375c3.058594 0 5.632812 2.304687 5.964844 5.347656l5.226562 47.871094c.1875 1.695312-.355469 3.390625-1.496094 4.660156-1.136718 1.269531-2.761718 1.992188-4.464844 1.992188zm-11.265624-12h4.574218l-3.917968-35.871094h-12.605469c-3.796875 0-6.886719 3.089844-6.886719 6.886718 0 3.796876 3.089844 6.886719 6.886719 6.886719h2.550781c2.851562 0 5.308594 2.007813 5.878906 4.804688zm0 0"></path><path d="m260.347656 252.835938h-16.167968c-1.703126 0-3.328126-.722657-4.464844-1.992188-1.140625-1.269531-1.683594-2.964844-1.5-4.65625l5.230468-47.875c.332032-3.042969 2.902344-5.347656 5.964844-5.347656h17.984375c10.414063 0 18.886719 8.472656 18.886719 18.886718 0 9.609376-7.210938 17.5625-16.503906 18.738282l-3.546875 17.441406c-.570313 2.796875-3.03125 4.804688-5.882813 4.804688zm-9.476562-12h4.574218l3.519532-17.292969c.570312-2.796875 3.027344-4.804688 5.882812-4.804688h2.546875c3.796875 0 6.886719-3.089843 6.886719-6.886719 0-3.796874-3.089844-6.886718-6.886719-6.886718h-12.605469zm0 0"></path><path d="m260.398438 283.410156h-106.746094c-3.3125 0-6-2.6875-6-6v-30.574218c0-3.3125 2.6875-6 6-6h106.746094c3.316406 0 6 2.6875 6 6v30.574218c0 3.3125-2.6875 6-6 6zm-100.746094-12h94.746094v-18.574218h-94.746094zm0 0"></path><path d="m153.652344 308.195312c-3.3125 0-6-2.683593-6-6v-24.785156c0-3.316406 2.6875-6 6-6s6 2.683594 6 6v24.785156c0 3.3125-2.6875 6-6 6zm0 0"></path><path d="m260.398438 308.195312c-3.3125 0-6-2.683593-6-6v-24.785156c0-3.316406 2.6875-6 6-6s6 2.683594 6 6v24.785156c0 3.3125-2.6875 6-6 6zm0 0"></path></g><path d="m361.773438 153.4375c0-22.992188-18.636719-41.632812-41.632813-41.632812-22.992187 0-41.632813 18.640624-41.632813 41.632812zm0 0" fill="#7babf1"></path><path d="m344.585938 280.253906h-48.886719c-6.058594 0-10.96875 4.914063-10.96875 10.972656 0 6.058594 4.910156 10.96875 10.96875 10.96875h48.886719c6.058593 0 10.96875-4.914062 10.96875-10.96875 0-6.0625-4.910157-10.972656-10.96875-10.972656zm0 0" fill="#a4cff2"></path><path d="m361.773438 159.4375h-83.265626c-3.3125 0-6-2.683594-6-6 0-26.265625 21.367188-47.632812 47.632813-47.632812s47.632813 21.367187 47.632813 47.632812c0 3.3125-2.683594 6-6 6zm-76.757813-12h70.253906c-2.859375-16.800781-17.523437-29.632812-35.128906-29.632812-17.601563 0-32.265625 12.832031-35.125 29.632812zm0 0" fill="#4c4372"></path><path d="m320.140625 286.253906c-3.3125 0-6-2.6875-6-6v-126.816406c0-3.3125 2.6875-6 6-6 3.316406 0 6 2.6875 6 6v126.816406c0 3.3125-2.6875 6-6 6zm0 0" fill="#4c4372"></path><path d="m344.585938 308.195312h-48.886719c-9.355469 0-16.972657-7.613281-16.972657-16.96875 0-9.359374 7.613282-16.972656 16.972657-16.972656h48.886719c9.355468 0 16.96875 7.613282 16.96875 16.972656 0 9.355469-7.613282 16.96875-16.96875 16.96875zm-48.886719-21.941406c-2.742188 0-4.972657 2.230469-4.972657 4.972656 0 2.738282 2.230469 4.96875 4.972657 4.96875h48.886719c2.738281 0 4.96875-2.230468 4.96875-4.96875 0-2.742187-2.226563-4.972656-4.96875-4.972656zm0 0" fill="#4c4372"></path><path d="m80.800781 225.292969c-14.828125 0-24.097656-16.054688-16.683593-28.898438l16.683593-28.894531 16.683594 28.894531c7.414063 12.84375-1.851563 28.898438-16.683594 28.898438zm0 0" fill="#7babf1"></path><path d="m52.226562 244.414062h57.152344l-10 57.78125h-37.152344zm0 0" fill="#a4cff2"></path><path d="m99.378906 308.195312h-37.152344c-2.921874 0-5.417968-2.101562-5.914062-4.976562l-10-57.78125c-.300781-1.742188.183594-3.53125 1.324219-4.886719 1.136719-1.351562 2.816406-2.136719 4.589843-2.136719h57.152344c1.769532 0 3.449219.785157 4.589844 2.136719 1.136719 1.355469 1.621094 3.144531 1.320312 4.886719l-10 57.78125c-.496093 2.875-2.992187 4.976562-5.910156 4.976562zm-32.101562-12h27.050781l7.921875-45.78125h-42.898438zm0 0" fill="#4c4372"></path><path d="m80.800781 250.414062c-3.3125 0-6-2.683593-6-6v-19.121093c0-3.316407 2.6875-6 6-6s6 2.683593 6 6v19.121093c0 3.316407-2.6875 6-6 6zm0 0" fill="#4c4372"></path><path d="m80.800781 231.292969c-9.132812 0-17.3125-4.722657-21.878906-12.632813s-4.566406-17.351562 0-25.265625l16.683594-28.894531c1.070312-1.855469 3.050781-3 5.195312-3s4.125 1.144531 5.195313 3l16.683594 28.894531c4.566406 7.910157 4.566406 17.355469 0 25.265625-4.566407 7.910156-12.746094 12.632813-21.878907 12.632813zm0-51.792969-11.488281 19.894531c-2.398438 4.15625-2.398438 9.113281 0 13.265625s6.695312 6.632813 11.488281 6.632813c4.796875 0 9.089844-2.480469 11.488281-6.632813 2.398438-4.152344 2.398438-9.109375 0-13.265625zm0 0" fill="#4c4372"></path><path d="m377.277344 308.195312h-340.554688c-3.316406 0-6-2.683593-6-6 0-3.3125 2.683594-6 6-6h340.554688c3.3125 0 6 2.6875 6 6 0 3.316407-2.6875 6-6 6zm0 0" fill="#4c4372"></path></svg>